<?xml version="1.0" encoding="UTF-8" standalone="no"?>
<!-- Created with Inkscape (http://www.inkscape.org/) -->

<svg
   xmlns:dc="http://purl.org/dc/elements/1.1/"
   xmlns:cc="http://creativecommons.org/ns#"
   xmlns:rdf="http://www.w3.org/1999/02/22-rdf-syntax-ns#"
   xmlns:svg="http://www.w3.org/2000/svg"
   xmlns="http://www.w3.org/2000/svg"
   xmlns:sodipodi="http://sodipodi.sourceforge.net/DTD/sodipodi-0.dtd"
   xmlns:inkscape="http://www.inkscape.org/namespaces/inkscape"
   width="204.24976mm"
   height="155.30502mm"
   viewBox="0 0 204.24976 155.30502"
   version="1.1"
   id="svg5074"
   inkscape:version="0.92.0 r15299"
   sodipodi:docname="logo.svg">
  <defs
     id="defs5068" />
  <sodipodi:namedview
     id="base"
     pagecolor="#ffffff"
     bordercolor="#666666"
     borderopacity="1.0"
     inkscape:pageopacity="0.0"
     inkscape:pageshadow="2"
     inkscape:zoom="0.74511719"
     inkscape:cx="231.03752"
     inkscape:cy="287.13595"
     inkscape:document-units="mm"
     inkscape:current-layer="layer1"
     showgrid="false"
     fit-margin-top="0"
     fit-margin-left="0"
     fit-margin-right="0"
     fit-margin-bottom="0"
     inkscape:window-width="1366"
     inkscape:window-height="715"
     inkscape:window-x="0"
     inkscape:window-y="29"
     inkscape:window-maximized="1" />
  <metadata
     id="metadata5071">
    <rdf:RDF>
      <cc:Work
         rdf:about="">
        <dc:format>image/svg+xml</dc:format>
        <dc:type
           rdf:resource="http://purl.org/dc/dcmitype/StillImage" />
        <dc:title></dc:title>
      </cc:Work>
    </rdf:RDF>
  </metadata>
  <g
     inkscape:label="Capa 1"
     inkscape:groupmode="layer"
     id="layer1"
     transform="translate(16.193204,-69.499693)">
    <g
       id="g6113"
       style="fill:#0e0f24;fill-opacity:1"
       transform="matrix(0.39865954,0,0,0.39865954,88.430475,-16.49969)">
      <path
         inkscape:connector-curvature="0"
         id="path4810"
         d="m -226.3125,380.92138 c -6.12142,0 -11.03517,1.47393 -14.83789,4.42383 -3.98818,3.1343 -6.39844,7.65522 -6.39844,12.08007 0,3.5952 1.66861,7.46222 4.08008,9.95118 2.87519,2.85773 7.79099,5.07426 15.02539,6.91796 l 12.42578,3.13282 c 9.18209,2.21244 12.33789,4.97675 12.33789,10.50781 0,7.83568 -7.23402,13.73437 -16.78711,13.73437 -10.6661,0 -20.03103,-6.63163 -26.52343,-18.98437 l -3.43555,1.10156 6.0293,21.11133 h 3.43359 l 1.75977,-4.60547 c 5.65765,3.96393 11.77933,5.80078 19.19921,5.80078 14.46884,0 25.78516,-8.75622 25.78516,-19.81836 0,-3.31866 -0.83336,-6.82116 -2.22461,-8.9414 -2.78247,-4.42484 -7.42064,-6.91572 -17.4375,-9.3125 l -11.5918,-2.76172 c -8.99662,-2.2124 -12.61523,-5.07281 -12.61523,-10.05078 0,-5.53108 5.93078,-9.86328 13.62891,-9.86328 8.90389,0 16.32988,4.70459 22.82226,14.56835 l 2.96289,-1.10937 -5.6582,-16.68555 h -3.33399 l -1.11523,3.32032 c -5.19394,-3.13426 -10.48235,-4.51758 -17.53125,-4.51758 z m 175.503906,1.19726 v 2.85742 l 2.31836,0.28126 c 4.82289,0.6453 6.029296,2.57955 6.029296,10.13867 v 36.23047 c 0,7.55913 -1.206406,9.49336 -6.029296,10.13867 l -2.31836,0.27539 v 2.85742 h 27.082032 v -2.85742 l -3.433594,-0.27539 c -4.63746,-0.36876 -6.027344,-2.67171 -6.027344,-10.13867 v -13.55469 h 13.076172 c 6.12157,0 11.6858043,-1.28949 15.3027342,-3.50195 4.82321014,-3.04208 7.9765626,-8.85177 7.9765626,-14.84376 0,-10.87776 -8.9023066,-17.60742 -23.1855468,-17.60742 z m 56.2636721,0 v 2.85742 l 2.3183594,0.28126 c 4.8228795,0.6453 6.0273435,2.57955 6.0273435,10.13867 v 36.23047 c 0,7.55913 -1.204464,9.49336 -6.0273435,10.13867 l -2.3183594,0.27539 v 2.85742 H 39.308594 c 10.29513,0 16.693658,-1.47787 21.423828,-4.88867 4.26659,-3.04211 6.955078,-8.29394 6.955078,-13.64063 0,-5.25452 -2.596808,-9.86143 -7.048828,-12.62695 -2.78247,-1.7515 -4.917461,-2.5848 -9.925781,-3.7832 4.73017,-1.1062 6.679496,-2.02936 8.998047,-3.87305 2.875199,-2.12023 4.455078,-5.4341 4.455078,-9.0293 0,-4.60922 -2.599888,-9.03876 -6.773438,-11.43554 -4.26658,-2.48899 -9.739919,-3.50196 -19.292969,-3.50196 z m 169.1562519,0 v 2.85742 l 2.31836,0.28126 c 4.8229,0.6453 6.02734,2.57955 6.02734,10.13867 v 36.23047 c 0,7.55913 -1.20444,9.49336 -6.02734,10.13867 l -2.31836,0.27539 v 2.85742 h 27.45898 v -2.85742 l -3.80469,-0.27539 c -4.6374,-0.36876 -6.02734,-2.67171 -6.02734,-10.13867 V 418.812 l 10.75781,-9.5 14.93164,23.69141 c 1.57681,2.48898 2.13086,3.87347 2.13086,5.16406 0,2.21241 -1.57732,3.3227 -5.6582,3.69141 -0.27915,0 -0.92399,0.0892 -1.66601,0.18164 v 2.85742 h 28.5664 v -2.76367 c -6.30693,-1.3828 -8.72119,-3.22638 -13.26562,-10.23242 l -17.61914,-28.58008 11.1289,-9.68164 c 5.65759,-4.79355 10.756,-7.7391 14.74414,-8.47657 l 0.65039,-0.1875 v -2.85742 h -26.52343 v 2.85742 l 0.92773,0.0938 c 3.98812,0.36874 5.375,1.38056 5.375,3.77734 0,2.12027 -0.7386,3.13882 -5.46875,7.28711 l -2.13672,1.84375 -0.55273,0.45703 -16.32227,14.66211 v -17.70117 c 0,-7.46693 1.38995,-9.76993 6.02734,-10.13867 l 3.80469,-0.28126 v -2.85742 h -27.45898 z m -139.011721,3.59571 c 12.79911,0 19.105469,3.7815 19.105469,11.61718 0,8.11225 -6.025714,11.33594 -20.865234,11.33594 H 23.080078 v -15.11328 c 0,-6.6373 1.853221,-7.83984 12.519531,-7.83984 z m -58.210937,0.27539 c 6.30701,0 10.105161,1.19852 12.7949218,4.14843 2.3188898,2.48898 3.5273437,5.89936 3.5273437,9.86329 0,3.87175 -1.2084539,7.19424 -3.5273437,9.77539 -2.7824708,3.13429 -6.2146768,4.32812 -11.7792968,4.32812 H -33.1875 v -22.21289 c 0,-4.97797 1.672452,-5.90234 10.576172,-5.90234 z m -88.626952,13.37109 v 0.002 c -2.13346,0 -4.36009,0.4567 -6.58594,1.47071 -2.22617,0.92184 -2.69056,1.29073 -7.14258,5.07031 -0.27912,0.27654 -1.02173,0.92269 -1.94922,1.66016 v -7.375 h -3.15039 c -5.7507,1.10623 -8.81211,1.47304 -14.00586,1.84179 v 2.76953 l 2.22461,0.18164 c 4.73017,0.36872 6.12305,2.11933 6.12305,7.6504 v 21.6621 c 0,5.07015 -1.67276,7.18948 -5.75391,7.6504 l -2.31836,0.18945 v 2.76172 h 24.95313 v -2.76172 l -2.32031,-0.18945 c -4.08083,-0.46092 -5.75196,-2.58025 -5.75196,-7.6504 v -22.58203 c 3.33909,-3.68738 5.84541,-5.16406 8.53516,-5.16406 1.57684,0 2.22693,0.27844 3.89648,1.38477 1.57684,1.19838 3.06319,1.66015 4.73243,1.66015 3.06062,0 5.28125,-2.12431 5.28125,-5.07422 0,-3.04211 -2.77947,-5.1582 -6.76758,-5.1582 z m -55.6543,0.002 c -6.6779,0 -12.14556,2.02199 -16.04101,6.07813 -4.17368,4.24047 -6.58594,10.60337 -6.58594,17.14844 0,13.7355 9.18038,23.14062 22.81445,23.14062 8.90387,0 15.11652,-3.32215 19.93946,-10.78906 l -2.68946,-1.66016 c -5.19395,6.45291 -8.99855,8.75977 -14.65625,8.75977 -9.55309,0 -15.95312,-7.64919 -15.95312,-19.08008 0,-5.16232 0.93311,-9.6841 2.69531,-13.2793 2.13323,-4.42485 5.75039,-6.63476 10.85156,-6.63476 4.82293,0 9.18164,2.85753 9.18164,6.08398 l -0.0957,3.22656 c 0,2.67336 2.04271,4.70118 4.73242,4.70118 2.6897,0 4.73047,-2.21262 4.73047,-5.07032 0,-3.0421 -1.95013,-6.17702 -5.28906,-8.66601 -3.70997,-2.67337 -8.06985,-3.95899 -13.63477,-3.95899 z m 86.070314,0 c -3.98811,0 -8.997071,1.10082 -12.707031,2.66797 -4.35932,1.9359 -7.513673,5.80874 -7.513673,9.03516 0,2.21244 2.043469,4.05469 4.455079,4.05469 2.59672,0 4.730469,-2.11803 4.730469,-4.69922 l -0.09375,-2.58203 c 0,-2.67336 4.173108,-4.79297 9.367188,-4.79297 6.58516,0 10.759765,3.22669 10.759765,8.29687 v 7.375 c -11.12989,1.19842 -11.596574,1.29064 -15.677734,2.30469 -10.29512,2.58116 -15.578127,7.09513 -15.578127,13.27148 0,6.6373 6.026552,11.43555 14.281252,11.43555 6.21428,0 10.760319,-1.93727 16.974609,-7.09961 1.76226,4.97797 4.916432,7.09961 10.388672,7.09961 3.89541,0 6.951788,-1.10674 9.548828,-3.5957 l -1.759765,-2.40039 c -1.57652,1.38276 -2.597319,1.84765 -4.173828,1.84765 -1.947711,0 -3.619279,-1.01292 -4.361329,-2.58007 -0.64901,-1.29058 -0.832031,-2.49115 -0.832031,-6.45508 v -19.54297 c 0,-5.53108 -1.486372,-8.38756 -5.289062,-10.50781 -3.43181,-1.93589 -8.252942,-3.13282 -12.519532,-3.13282 z m 176.777344,0 c -6.49243,0 -12.245128,2.21068 -15.955078,5.99024 -3.89541,4.05613 -6.490234,10.87718 -6.490234,17.33008 0,13.91985 8.995133,23.04687 22.814453,23.04687 13.448781,0 22.539061,-9.21999 22.539061,-22.86328 0,-5.992 -2.13262,-12.07789 -5.56445,-16.31836 -3.89539,-4.60923 -10.10926,-7.18555 -17.343752,-7.18555 z m 50.830082,0 c -6.49251,0 -12.24348,2.21068 -15.95313,5.99024 -3.89571,4.05613 -6.49219,10.87718 -6.49219,17.33008 0,13.91985 8.99475,23.04687 22.81446,23.04687 13.44846,0 22.53906,-9.21999 22.53906,-22.86328 0,-5.992 -2.13263,-12.07789 -5.56445,-16.31836 -3.8954,-4.60923 -10.10958,-7.18555 -17.34375,-7.18555 z m -50.736332,3.6836 c 8.347422,0 13.351562,7.65393 13.351562,20.2832 0,11.70743 -4.82043,18.71094 -12.982421,18.71094 -8.53284,0 -13.447266,-7.09999 -13.447266,-19.54492 0,-11.7996 5.194625,-19.44922 13.078125,-19.44922 z m 50.830082,0 c 8.3471,0 13.35156,7.65393 13.35156,20.2832 0,11.70743 -4.82043,18.71094 -12.98242,18.71094 -8.53291,0 -13.44727,-7.09999 -13.44727,-19.54492 0,-11.7996 5.19423,-19.44922 13.07813,-19.44922 z m -123.798832,9.58789 h 10.941406 c 8.71829,0 13.631476,0.46017 16.228516,1.5664 4.45202,1.93588 6.960938,6.17987 6.960938,11.71094 0,4.60922 -1.9473,8.93721 -5.19336,11.33399 -3.52453,2.67337 -8.904309,3.87304 -16.880859,3.87304 -5.75038,0 -9.648276,-1.0153 -10.947266,-2.95117 -0.83445,-1.19842 -1.109375,-2.94583 -1.109375,-7.46289 z m -94.904297,9.31055 v 12.53906 c -5.19375,4.8858 -9.091065,6.8164 -13.728515,6.8164 -4.4517,0 -8.064454,-3.50093 -8.064454,-7.92578 0,-6.17638 7.787889,-10.23129 21.792969,-11.42968 z"
         style="font-style:normal;font-variant:normal;font-weight:normal;font-stretch:normal;font-size:medium;line-height:125%;font-family:'URW Bookman L';-inkscape-font-specification:'URW Bookman L';letter-spacing:-0.68626148px;word-spacing:0px;opacity:0.95999995;fill:#0e0f24;fill-opacity:1;stroke:none;stroke-width:1px;stroke-linecap:butt;stroke-linejoin:miter;stroke-opacity:1" />
      <path
         inkscape:connector-curvature="0"
         id="path4927"
         d="m 34.607742,449.41602 c -0.874946,-0.0256 -1.723528,0.10338 -2.546875,0.38476 -0.797913,0.28136 -1.532238,0.68748 -2.201172,1.22461 -0.669104,0.53714 -1.20943,1.20511 -1.621094,1.99805 -0.746319,1.43233 -1.043096,2.96456 -0.888672,4.60156 0.180044,1.63695 0.941264,3.35213 2.279297,5.14258 0.489064,0.665 0.913184,1.32912 1.273437,1.99414 0.36026,0.665 0.605754,1.32915 0.734376,1.99414 0.128632,0.66504 0.128632,1.3426 0,2.0332 -0.128614,0.66502 -0.425226,1.33301 -0.888672,1.99805 -0.437295,0.61386 -0.964341,1.11046 -1.582032,1.49414 -0.617507,0.38366 -1.273845,0.65122 -1.96875,0.80469 -0.694716,0.15358 -1.404487,0.17839 -2.125,0.0762 -0.694907,-0.10241 -1.335836,-0.34287 -1.927734,-0.72656 -0.643305,-0.38366 -1.160821,-0.85724 -1.546875,-1.41993 -0.360258,-0.56274 -0.615106,-1.17676 -0.769531,-1.84179 -0.128973,-0.66499 -0.153914,-1.35411 -0.07617,-2.07031 0.07702,-0.71618 0.242563,-1.42077 0.5,-2.11133 0.437469,-1.15099 0.962388,-2.11158 1.580078,-2.87891 0.617513,-0.76734 1.340537,-1.37943 2.164062,-1.83984 -0.360265,-0.48595 -0.887308,-0.79203 -1.582031,-0.91992 -0.669101,-0.15358 -1.300679,-0.14191 -1.892578,0.0371 -0.823521,0.23021 -1.609152,0.79226 -2.355469,1.6875 -0.746311,0.86962 -1.284678,1.95531 -1.61914,3.25977 -0.20512,0.81848 -0.294613,1.63854 -0.269532,2.45703 0.0258,0.81848 0.191146,1.62502 0.5,2.41797 0.308842,0.76733 0.75966,1.49692 1.351563,2.1875 0.617686,0.6906 1.401184,1.31424 2.353516,1.87695 0.797729,0.4604 1.688068,0.7684 2.666015,0.92188 1.003568,0.17895 2.006194,0.2039 3.009766,0.0762 1.003565,-0.10241 1.969949,-0.35639 2.896484,-0.76562 0.952152,-0.40922 1.775987,-0.9694 2.470703,-1.68555 0.772114,-0.74174 1.386344,-1.5618 1.84961,-2.45703 0.488518,-0.8952 0.773989,-1.8308 0.851562,-2.80274 0.102995,-0.99753 0.002,-2.00618 -0.30664,-3.02929 -0.30885,-1.02311 -0.864202,-2.03371 -1.66211,-3.03125 -1.157988,-1.45791 -1.867568,-2.79002 -2.125,-3.99219 -0.231626,-1.22773 -0.138236,-2.35385 0.273438,-3.37695 0.257426,-0.58828 0.588323,-1.05794 1,-1.41602 0.411677,-0.38366 0.851185,-0.65513 1.314453,-0.80859 0.488886,-0.17898 0.977738,-0.25211 1.466797,-0.22657 0.488893,0 0.926416,0.0981 1.3125,0.30274 0.669288,0.33253 1.03062,0.885 1.082031,1.65234 0.07704,0.74176 -0.0671,1.4848 -0.427734,2.22656 -0.48888,1.02312 -1.246029,1.80274 -2.275391,2.33985 h -0.002 c 0.180218,0.51155 0.477008,0.89463 0.888672,1.15039 0.437476,0.25576 0.899787,0.36931 1.388672,0.34375 0.514863,-0.0255 1.032197,-0.19111 1.546875,-0.49805 0.540477,-0.3325 0.989349,-0.83107 1.349609,-1.49609 0.308312,-0.56273 0.500373,-1.1633 0.578125,-1.80274 0.103912,-0.66501 0.05172,-1.30406 -0.154297,-1.91796 -0.180037,-0.63941 -0.528291,-1.22851 -1.042969,-1.76563 -0.514691,-0.53713 -1.231657,-0.98565 -2.158203,-1.34375 -0.874939,-0.30693 -1.765279,-0.45898 -2.666015,-0.45898 z m -117.533203,0.16796 c -0.194171,-10e-4 -0.387857,-3.7e-4 -0.580079,0.008 -1.153154,0.0432 -2.266877,0.26512 -3.347656,0.66797 -1.441222,0.53713 -2.782373,1.31869 -4.017578,2.34179 -1.235369,1.0231 -2.369073,2.23973 -3.398437,3.64649 -1.003569,1.38122 -1.86524,2.87687 -2.585938,4.48828 -0.694722,1.53465 -1.233084,3.07844 -1.619141,4.63867 -0.360082,1.56023 -0.464786,2.98282 -0.310547,4.26172 0.154434,1.27888 0.63391,2.34149 1.431641,3.18555 0.797907,0.84401 2.032412,1.30013 3.705078,1.37695 0.72052,0.051 1.361456,-0.0219 1.927735,-0.22656 0.591888,-0.20464 1.069434,-0.41062 1.429687,-0.61524 0.283231,1.20214 0.696032,2.14927 1.236328,2.83985 0.566276,0.6906 1.207215,1.1237 1.927735,1.30273 0.746318,0.20462 1.467208,0.12948 2.162109,-0.22852 0.72052,-0.35807 1.258696,-0.94713 1.619141,-1.76562 -0.797916,-0.17914 -1.452119,-0.5891 -1.966797,-1.22852 -0.488892,-0.63948 -0.91123,-1.40752 -1.271485,-2.30273 1.338199,-0.84405 2.686772,-2.09527 4.050782,-3.75781 1.389616,-1.68814 2.572825,-3.72286 3.550781,-6.10157 0.771937,-1.79045 1.247512,-3.42466 1.427734,-4.9082 0.180046,-1.50907 0.11726,-2.80463 -0.191406,-3.87891 -0.309021,-1.09987 -0.860653,-1.96604 -1.658203,-2.60546 -0.772116,-0.63941 -1.751757,-1.01096 -2.935547,-1.11328 -0.196249,-0.0121 -0.391768,-0.0204 -0.585937,-0.0234 v -0.002 z m -0.08594,1.16797 c 0.139983,0.007 0.273717,0.0213 0.402344,0.0469 0.540476,0.10241 0.964781,0.3814 1.273437,0.84179 0.335184,0.4604 0.491178,1.12453 0.464844,1.99415 0,0.86964 -0.194023,1.95724 -0.580078,3.26171 -0.360262,1.27887 -0.938415,2.80153 -1.736328,4.56641 -0.668931,1.45793 -1.378688,2.79962 -2.125,4.02734 -0.720518,1.20216 -1.504192,2.28779 -2.353516,3.25977 -0.540298,-1.02312 -1.198594,-1.7392 -1.970703,-2.14844 -0.746311,-0.43486 -1.518675,-0.59847 -2.316406,-0.49609 -0.772115,0.0767 -1.513855,0.39624 -2.234375,0.95898 -0.694899,0.56268 -1.250433,1.3173 -1.66211,2.26367 l -0.115234,-0.15429 c 0.643483,-1.79047 1.270987,-3.40356 1.888672,-4.83594 0.643311,-1.43234 1.122977,-2.47951 1.431641,-3.14453 1.10675,-2.25083 2.147052,-4.07954 3.125,-5.48633 1.003574,-1.4068 1.932102,-2.49243 2.78125,-3.25976 0.849316,-0.76733 1.621506,-1.25632 2.316406,-1.46094 0.34736,-0.11523 0.670249,-0.18679 0.972656,-0.21875 0.15111,-0.0155 0.29752,-0.0208 0.4375,-0.0156 z m 132.601562,0.006 c -0.746316,0.20461 -1.518856,0.37015 -2.316406,0.49805 -0.797914,0.10241 -1.494049,0.12722 -2.085937,0.0762 l -10.962891,22.82813 h 4.091797 l 2.546875,-5.25586 c 0.823705,-1.48352 1.624554,-2.73471 2.396484,-3.75782 0.772116,-1.04867 1.477784,-1.90723 2.121094,-2.57226 0.669283,-0.66502 1.262665,-1.15208 1.777344,-1.45899 0.514689,-0.30696 0.925525,-0.47053 1.234375,-0.49609 0.385879,-0.0256 0.654175,0.0475 0.808594,0.22656 0.154057,0.15357 0.182738,0.46343 0.08008,0.92383 -0.07704,0.43484 -0.309267,1.03543 -0.695313,1.80274 -0.386063,0.76733 -0.926195,1.72402 -1.621094,2.875 -0.591894,0.97194 -1.096133,1.85551 -1.507812,2.64843 -0.385516,0.76733 -0.588899,1.48343 -0.615234,2.14844 -0.05198,0.89522 0.190166,1.61131 0.730468,2.14844 0.540476,0.51156 1.185323,0.76758 1.931641,0.76758 0.771937,0 1.493004,-0.16543 2.162109,-0.49805 0.6949,-0.3325 1.377778,-0.79258 2.046875,-1.38086 0.668935,-0.61389 1.323492,-1.32996 1.966797,-2.14844 0.187204,-0.23803 0.392478,-0.53025 0.583985,-0.78125 0.0197,0.87871 0.173116,1.67682 0.513671,2.35547 0.386058,0.76732 0.964215,1.37944 1.736329,1.83985 0.772117,0.43484 1.726988,0.65039 2.859375,0.65039 2.367365,0 4.412633,-0.78917 6.136718,-2.375 1.312558,0.051 2.598552,-0.27229 3.859375,-0.96289 0.193143,-0.10751 0.375134,-0.24463 0.560547,-0.3711 l -4.714844,9.61914 c 0.643271,-0.15341 1.364398,-0.26888 2.16211,-0.3457 0.772154,-0.051 1.468279,-0.051 2.085937,0 l 3.167969,-6.36914 c 1.389637,0.76734 2.916993,1.01377 4.589844,0.73242 1.672679,-0.30696 3.242153,-1.10194 4.708984,-2.38086 1.389644,0.179 2.78035,-0.0656 4.169922,-0.73047 1.389651,-0.6906 2.599557,-1.87825 3.628906,-3.5664 l -0.925781,-0.53711 c -0.694876,1.27886 -1.569811,2.23555 -2.625,2.875 -1.055148,0.63949 -2.086113,0.91096 -3.089844,0.80859 0.283039,-0.33252 0.555079,-0.67706 0.8125,-1.03516 0.257252,-0.35808 0.514061,-0.7431 0.771485,-1.15234 0.849118,-1.40676 1.402725,-2.68688 1.660156,-3.83789 0.283104,-1.15102 0.345635,-2.13462 0.191406,-2.95313 -0.154023,-0.84407 -0.489251,-1.49468 -1.003906,-1.95507 -0.514695,-0.48593 -1.155658,-0.76892 -1.927734,-0.84571 -0.46311,-0.0768 -0.925405,-0.0652 -1.388672,0.0371 -0.463105,0.0767 -0.916037,0.2192 -1.353516,0.42383 -0.437487,0.20462 -0.850248,0.4452 -1.236328,0.72656 -0.360234,0.28136 -0.666577,0.57588 -0.923828,0.88282 l -0.925781,0.96093 -0.115235,-0.15234 1.619141,-1.92188 0.384765,-0.95703 c -0.617706,0.17896 -1.338611,0.34456 -2.162109,0.49805 -0.823561,0.12789 -1.527269,0.15474 -2.119141,0.0781 l -4.125,8.41602 c -0.513074,0.72827 -1.111483,1.32742 -1.798828,1.78906 -0.926368,0.6139 -1.850804,0.94697 -2.777343,0.99805 0.437429,-0.53712 0.823713,-1.1281 1.158203,-1.76758 0.360237,-0.63942 0.681804,-1.34205 0.964844,-2.10937 0.385856,-1.07428 0.576171,-2.08292 0.576171,-3.0293 0,-0.97196 -0.190315,-1.81699 -0.576171,-2.5332 -0.386074,-0.71615 -0.966184,-1.27629 -1.738282,-1.68555 -0.746313,-0.43484 -1.672698,-0.6543 -2.779297,-0.6543 -0.977945,0 -1.928929,0.16566 -2.855468,0.49805 -0.926372,0.33248 -1.803224,0.808 -2.626953,1.42188 -0.823336,0.58825 -1.571132,1.30438 -2.240235,2.14843 -0.643303,0.84408 -1.168229,1.7892 -1.580078,2.83789 -0.216056,0.54968 -0.373216,1.07952 -0.494141,1.59571 -0.319958,0.48558 -0.645755,0.97134 -1.029296,1.47265 -0.463082,0.61386 -0.950167,1.17789 -1.464844,1.68946 -0.489071,0.48597 -0.964653,0.89598 -1.427735,1.22851 -0.463273,0.30692 -0.875895,0.45703 -1.236328,0.45703 -0.335003,0 -0.515936,-0.13853 -0.541015,-0.41992 -0.02506,-0.30693 0.04968,-0.71499 0.230468,-1.22656 0.205838,-0.51154 0.502615,-1.11407 0.888672,-1.80469 0.386054,-0.71616 0.823614,-1.49382 1.3125,-2.33789 0.694903,-1.25331 1.23699,-2.33131 1.623047,-3.22656 0.411666,-0.89521 0.514434,-1.73639 0.308594,-2.5293 -0.283041,-1.09985 -1.030656,-1.71583 -2.240235,-1.84375 -1.003565,-0.12789 -2.211705,0.14145 -3.626953,0.80664 -1.389795,0.66502 -2.757679,1.82768 -4.095703,3.49024 l -0.113281,-0.15039 1.699219,-2.11133 4.826172,-10.05274 h -0.002 z m -52.7109367,7.63672 c -0.9779565,0 -1.8396201,0.0981 -2.5859375,0.30274 -0.720514,0.17897 -1.3749043,0.464 -1.9667969,0.84765 -0.5662745,0.3581 -1.0837868,0.81622 -1.546875,1.37891 -0.4632669,0.53714 -0.8875529,1.15314 -1.2734379,1.84375 -0.463267,0.8185 -0.963602,1.63661 -1.503906,2.45508 -0.38552,0.61298 -0.755943,1.2249 -1.126953,1.83789 -0.362588,0.56659 -0.757201,1.14024 -1.207031,1.72851 -0.463274,0.61385 -0.952115,1.17789 -1.466797,1.68946 -0.488886,0.48596 -0.962516,0.89599 -1.425782,1.22851 -0.463268,0.30694 -0.876074,0.45703 -1.236328,0.45703 -0.334111,0 -0.516806,-0.1366 -0.542969,-0.41797 -0.0258,-0.30692 0.05221,-0.71693 0.232422,-1.22851 0.205836,-0.51154 0.50262,-1.1141 0.888672,-1.80469 0.385878,-0.71617 0.823613,-1.49774 1.3125,-2.3418 0.694895,-1.25332 1.235215,-2.32743 1.621094,-3.22265 0.411849,-0.89524 0.51443,-1.73636 0.308594,-2.5293 -0.283051,-1.09985 -1.028694,-1.71588 -2.238282,-1.84375 -1.003573,-0.10242 -2.200221,0.18069 -3.589843,0.8457 -1.389622,0.63945 -2.753585,1.76555 -4.091797,3.37696 l -0.113281,-0.19336 1.61914,-1.95899 1.003907,-2.03125 c -0.746318,0.20462 -1.531935,0.38363 -2.355469,0.53711 -0.797727,0.1279 -1.478825,0.14131 -2.044922,0.0391 l -3.755859,7.80469 c -0.576486,0.94477 -1.224051,1.7808 -1.96875,2.47461 -0.823345,0.76733 -1.685195,1.39683 -2.585938,1.88281 -0.874943,0.48598 -1.753956,0.84401 -2.628906,1.07422 -0.875115,0.23017 -1.647301,0.34375 -2.316406,0.34375 -0.926359,0 -1.618765,-0.28102 -2.082032,-0.84375 -0.462905,-0.56272 -0.643846,-1.34228 -0.541015,-2.33984 1.106396,0.0511 2.200469,-0.0373 3.28125,-0.26758 1.106576,-0.25579 2.124428,-0.62533 3.050781,-1.11133 0.952153,-0.48597 1.800557,-1.09047 2.546875,-1.80664 0.74631,-0.74177 1.337921,-1.55985 1.775391,-2.45508 0.309025,-0.61386 0.489604,-1.21442 0.541015,-1.80273 0.05143,-0.61384 -0.02841,-1.16247 -0.234375,-1.64844 -0.205835,-0.48595 -0.536727,-0.89403 -1,-1.22656 -0.437469,-0.35801 -1.017766,-0.57751 -1.738281,-0.6543 -0.849152,-0.10241 -1.762285,-0.0657 -2.740235,0.11328 -0.951965,0.17914 -1.918538,0.52553 -2.896484,1.03711 -0.952153,0.48598 -1.876602,1.15006 -2.777344,1.99414 -0.874936,0.84406 -1.64731,1.87012 -2.316406,3.07227 -0.412754,0.7573 -0.710879,1.48473 -0.917969,2.19336 -0.572188,0.93269 -1.215941,1.75852 -1.953125,2.44531 -0.82334,0.76732 -1.685195,1.39686 -2.585937,1.88281 -0.874933,0.48601 -1.748104,0.84401 -2.623047,1.07422 -0.874943,0.23018 -1.647305,0.3418 -2.316406,0.3418 -0.92653,0 -1.622854,-0.2791 -2.085938,-0.8418 -0.463088,-0.56272 -0.643838,-1.34427 -0.541015,-2.34179 1.106397,0.0511 2.200475,-0.0353 3.28125,-0.26563 1.106581,-0.25577 2.124425,-0.6273 3.050781,-1.11328 0.952155,-0.486 1.800563,-1.08853 2.546875,-1.80469 0.746144,-0.74177 1.337916,-1.55987 1.775391,-2.45508 0.308844,-0.61385 0.489592,-1.21441 0.541015,-1.80273 0.05142,-0.61384 -0.02461,-1.16245 -0.230469,-1.64844 -0.205835,-0.48594 -0.540645,-0.89598 -1.003906,-1.22851 -0.437475,-0.35801 -1.019534,-0.57557 -1.740234,-0.65235 -0.849145,-0.10242 -1.760334,-0.0657 -2.738282,0.11328 -0.952156,0.17915 -1.916752,0.52554 -2.894531,1.03711 -0.952325,0.48595 -1.880509,1.15007 -2.78125,1.99414 -0.874932,0.84408 -1.647482,1.86819 -2.316406,3.07032 -0.412748,0.75731 -0.708745,1.48669 -0.916016,2.19531 -1.049609,1.73254 -2.026189,3.03771 -2.917968,3.82812 -0.926355,0.81845 -1.647425,1.20148 -2.16211,1.15039 -0.926535,-0.0767 -0.81246,-1.31443 0.345703,-3.71874 l 4.824219,-9.67188 c -0.746139,0.10242 -1.491964,0.17935 -2.238281,0.23047 -0.720513,0.051 -1.37491,0.0666 -1.966797,0.041 l -2.896484,5.75586 -1.158203,2.45704 c -0.463094,0.74175 -0.951934,1.41737 -1.466797,2.03124 -0.488885,0.58829 -0.977911,1.0849 -1.466797,1.49415 -0.463093,0.40923 -0.912152,0.73269 -1.34961,0.96289 -0.437657,0.20459 -0.823735,0.27963 -1.158203,0.22851 -0.541013,-0.0512 -0.824526,-0.3707 -0.849609,-0.95898 0,-0.5883 0.272022,-1.42187 0.8125,-2.4961 l 4.861328,-9.74414 c -0.669283,0.25576 -1.414934,0.45026 -2.238281,0.57813 -0.797901,0.1279 -1.532071,0.17994 -2.201172,0.1543 l -4.439453,8.90039 c -0.41167,0.84407 -0.641949,1.62169 -0.69336,2.33789 -0.05143,0.71618 0.0379,1.3322 0.269532,1.84375 0.231629,0.48599 0.579702,0.86904 1.042968,1.15039 0.489059,0.25578 1.053948,0.38281 1.697266,0.38281 0.926354,-0.0256 1.968965,-0.38361 3.126953,-1.07422 1.158168,-0.6906 2.30317,-1.73969 3.435547,-3.14648 h 0.117188 l -0.773438,1.34375 -0.03906,0.46093 c -0.0258,0.74175 0.194938,1.32886 0.658203,1.76368 0.463274,0.43486 1.028335,0.66387 1.697265,0.68945 0.874937,0 1.671887,-0.16347 2.392578,-0.4961 0.720526,-0.35809 1.403572,-0.84511 2.046875,-1.45898 0.669288,-0.61384 1.310229,-1.32997 1.927735,-2.14844 0.143681,-0.19043 0.296296,-0.41788 0.441406,-0.61523 0.01882,0.71367 0.156337,1.36989 0.425781,1.95898 0.386055,0.81847 1.015683,1.48259 1.890625,1.99414 0.900736,0.48601 2.032483,0.72852 3.396485,0.72852 1.132191,0 2.252626,-0.16543 3.359375,-0.49805 1.106394,-0.35806 2.147055,-0.83162 3.125,-1.41992 0.977946,-0.58826 1.881372,-1.29089 2.705078,-2.10937 0.22662,-0.22533 0.417729,-0.47009 0.625,-0.70704 0.0125,0.73461 0.151491,1.40798 0.427734,2.01172 0.385874,0.81847 1.017639,1.48259 1.892578,1.99414 0.90074,0.48601 2.032662,0.72852 3.396485,0.72852 1.132377,0 2.252803,-0.16543 3.359375,-0.49805 1.106576,-0.35806 2.147228,-0.83162 3.125,-1.41992 0.68576,-0.41247 1.321837,-0.90207 1.93164,-1.42773 l -1.609375,3.3457 h 4.09375 l 2.66211,-5.48828 c 0.797723,-1.43238 1.58336,-2.64503 2.355468,-3.64258 0.771932,-1.02309 1.475842,-1.8547 2.119141,-2.49414 0.643495,-0.63945 1.2121,-1.11299 1.701172,-1.41992 0.514677,-0.30697 0.925533,-0.47053 1.234375,-0.4961 0.386059,-0.0256 0.658076,0.0475 0.8125,0.22657 0.154073,0.15358 0.178822,0.4634 0.07617,0.92382 -0.07721,0.43482 -0.309256,1.03542 -0.695313,1.80274 -0.385881,0.76733 -0.926194,1.72402 -1.621094,2.875 -0.591897,0.97194 -1.095956,1.85551 -1.507812,2.64844 -0.385516,0.76733 -0.588901,1.48341 -0.615234,2.14843 -0.05143,0.89524 0.193893,1.61131 0.734375,2.14844 0.540297,0.51156 1.181595,0.76758 1.927734,0.76758 0.772103,0 1.493002,-0.16543 2.162109,-0.49805 0.694723,-0.33248 1.379912,-0.7926 2.048828,-1.38086 0.669291,-0.61386 1.32154,-1.32995 1.964845,-2.14843 0.471152,-0.59944 0.97002,-1.28507 1.46875,-1.9668 l 0.01953,0.01 c 0.04277,-0.0597 0.09318,-0.14768 0.136719,-0.21093 0.13184,-0.18141 0.250951,-0.3305 0.384765,-0.51758 l -0.04297,-0.0234 c 0.110713,-0.17625 0.215067,-0.31815 0.330079,-0.51562 0.308845,-0.48595 0.617111,-0.98453 0.925781,-1.4961 0.308837,-0.53711 0.605621,-1.04719 0.8886717,-1.5332 0.2832292,-0.51155 0.526754,-0.96008 0.7324218,-1.34375 l 0.1171876,0.0391 -0.5410157,1.45899 c -0.025798,0.5883 0.090404,1.1619 0.3476563,1.72461 0.2830503,0.56274 0.577876,1.1498 0.8867187,1.76367 0.3088426,0.58828 0.5808665,1.19081 0.8125,1.80468 0.231276,0.61388 0.2940617,1.25296 0.1914063,1.91797 -0.1544191,0.97197 -0.6034709,1.72656 -1.3496094,2.26368 -0.7206925,0.53715 -1.5689243,0.66614 -2.5468753,0.38476 0.07757,-0.46038 0.102336,-0.89545 0.07617,-1.30469 0,-0.43482 -0.06278,-0.80636 -0.191406,-1.11328 -0.128625,-0.30694 -0.311337,-0.53598 -0.542969,-0.68945 -0.231629,-0.15358 -0.503835,-0.19214 -0.8125,-0.11523 -0.283223,0.0767 -0.500045,0.25379 -0.654297,0.53515 -0.180751,0.25576 -0.256802,0.5638 -0.230468,0.92188 0.02563,0.35808 0.166398,0.74115 0.423828,1.15039 0.231635,0.40923 0.604455,0.80577 1.11914,1.18945 0.669101,0.46036 1.519466,0.7414 2.5488284,0.84375 1.0293623,0.1279 2.0337729,0.0279 3.0117188,-0.30469 0.6949059,-0.15358 1.4538177,-0.49805 2.2773437,-1.03515 0.823532,-0.53715 1.6339121,-1.16665 2.4316406,-1.88282 0.7085198,-0.61623 1.36122352,-1.27875 1.97460942,-1.9707 -0.00894,0.49921 0.037148,0.96407 0.1953125,1.35742 0.2058356,0.48597 0.5272018,0.87098 0.96484378,1.15235 0.4630939,0.28135 1.0033971,0.41992 1.6210937,0.41992 0.8235267,0.0257 1.7766414,-0.24197 2.8574224,-0.80469 1.106575,-0.58826 2.198522,-1.4699 3.279296,-2.64648 h 0.158204 l -1.082032,1.45703 -2.316406,4.71875 c -0.386057,0.7673 -0.785411,1.36789 -1.197266,1.80273 -0.3858785,0.43484 -0.7836409,0.74478 -1.1953121,0.92383 -0.3860577,0.17894 -0.7723298,0.25406 -1.1582031,0.22852 -0.3860632,-0.0256 -0.7473909,-0.11432 -1.0820313,-0.26758 0.077215,-1.02314 -0.092056,-1.81622 -0.50390628,-2.37891 -0.4116767,-0.53712 -0.862682,-0.71812 -1.3515624,-0.53906 -0.2319967,0.10241 -0.39539712,0.2948 -0.49804692,0.57617 -0.128984,0.30691 -0.1556973,0.65343 -0.078125,1.03711 0.07721,0.38366 0.2560177,0.76867 0.53906252,1.15234 0.2832293,0.40926 0.6958463,0.76535 1.2363281,1.07227 1.02936778,0.58835 2.02068738,0.83084 2.97265628,0.72852 0.9779512,-0.0767 1.8910832,-0.39628 2.7402342,-0.95899 0.849319,-0.5371 1.619552,-1.25322 2.314453,-2.14844 0.720519,-0.89521 1.340791,-1.85576 1.8554687,-2.8789 l 7.71875,-15.3086 c -0.66893,0.10242 -1.390004,0.19276 -2.162109,0.26953 -0.771942,0.0511 -1.454981,0.0511 -2.046875,0 l -3.705078,7.32813 -0.03906,0.0371 c -0.4888857,0.74174 -0.9890497,1.40974 -1.5039057,1.99805 -0.5145,0.5627 -1.015019,1.0343 -1.503907,1.41796 -0.488885,0.38367 -0.943612,0.66668 -1.355468,0.84571 -0.385873,0.17897 -0.703513,0.25405 -0.960938,0.22851 -0.5144997,-0.0512 -0.7734372,-0.34567 -0.7734372,-0.88281 0,-0.53711 0.2835145,-1.4072 0.8496092,-2.60937 l 4.28711,-8.63282 c -0.72052,0.28137 -1.492887,0.48737 -2.316407,0.61524 -0.79774,0.1279 -1.507488,0.16852 -2.125,0.11719 l -3.85937478,7.78906 c -0.0125669,0.0253 -0.018351,0.047 -0.03125,0.0723 -0.2151496,0.3492 -0.415315,0.69296 -0.7148437,1.07813 -0.4374691,0.5627 -0.9243675,1.12286 -1.46484372,1.68555 -0.514684,0.56272 -1.06631,1.08823 -1.6582032,1.57421 -0.5662797,0.48596 -1.135071,0.89211 -1.7011718,1.22461 l -0.076172,-0.1875 c 0.1286262,-0.10242 0.309209,-0.25824 0.5410156,-0.46289 0.2311028,-0.23019 0.385134,-0.48426 0.4628906,-0.76562 0.3092001,-1.0231 0.3470508,-1.93365 0.1152344,-2.72657 -0.2056578,-0.81846 -0.4988923,-1.58656 -0.8847656,-2.30273 -0.3862307,-0.74176 -0.759054,-1.46936 -1.1191406,-2.18555 -0.3349923,-0.71615 -0.4664172,-1.49769 -0.3886719,-2.34179 0.077031,-0.76731 0.3852982,-1.37946 0.9257812,-1.83985 0.5402975,-0.48599 1.1605685,-0.74008 1.8554688,-0.76562 0.1030119,0.25578 0.2550962,0.50985 0.4609375,0.76562 0.2316277,0.23018 0.4789023,0.42466 0.7363281,0.57813 0.2574314,0.15357 0.4988353,0.24008 0.7304688,0.26562 0.2574259,0 0.49125682,-0.0866 0.69726562,-0.26562 0.1805848,-0.17916 0.256624,-0.39854 0.2304687,-0.6543 -0.025798,-0.28134 -0.1550857,-0.53738 -0.3867187,-0.76758 -0.20584122,-0.25578 -0.51392592,-0.47526 -0.92578132,-0.65429 -0.3858787,-0.17897 -0.8483688,-0.26563 -1.3886719,-0.26563 h -0.00391 z m 67.9355467,1.45508 c 0.411642,0 0.706492,0.16753 0.886719,0.5 0.2064,0.33254 0.295647,0.80603 0.269531,1.41992 0,0.58828 -0.113901,1.27935 -0.345703,2.07227 -0.205841,0.79291 -0.515874,1.64753 -0.927735,2.56836 -0.437486,0.97196 -0.899619,1.86903 -1.388672,2.6875 -0.463048,0.79291 -0.950118,1.48204 -1.464843,2.07031 -0.514673,0.58831 -1.030027,1.06185 -1.544922,1.41992 -0.488893,0.33252 -0.966416,0.49805 -1.429688,0.49805 -0.463044,0 -0.795945,-0.177 -1.001953,-0.53516 -0.180564,-0.38368 -0.260658,-0.89767 -0.234375,-1.53711 0.02541,-0.665 0.171207,-1.40612 0.427735,-2.22461 0.25742,-0.84407 0.605488,-1.7237 1.042968,-2.64453 0.411699,-0.8952 0.849402,-1.72876 1.3125,-2.49609 0.488891,-0.76733 0.97579,-1.43146 1.464844,-1.99414 0.514511,-0.56274 1.016969,-0.99774 1.50586,-1.30469 0.488883,-0.33249 0.964461,-0.5 1.427734,-0.5 z m -115.410156,0.0332 v 0.002 c 0.07935,0.007 0.153847,0.019 0.224609,0.041 0.359896,0.0767 0.551789,0.44827 0.578125,1.11328 0.02563,0.63944 -0.271165,1.48451 -0.888672,2.53321 -0.926535,1.61138 -2.005216,2.87802 -3.240234,3.79882 -1.209584,0.92081 -2.470612,1.44242 -3.783203,1.57032 0.206021,-0.97197 0.643398,-2.05761 1.3125,-3.25977 1.235198,-2.17411 2.405146,-3.72178 3.511718,-4.64258 0.829983,-0.6906 1.507234,-1.07262 2.033203,-1.14453 0.0876,-0.0121 0.172592,-0.0165 0.251954,-0.0117 z m 15.529296,0 v 0.002 c 0.07848,0.007 0.153839,0.019 0.22461,0.041 0.360797,0.0767 0.554994,0.44827 0.580078,1.11328 0.0258,0.63944 -0.270987,1.48451 -0.888672,2.53321 -0.926361,1.61138 -2.008764,2.87802 -3.24414,3.79882 -1.209401,0.92081 -2.468841,1.44242 -3.78125,1.57032 0.205835,-0.97197 0.641436,-2.05761 1.310546,-3.25977 1.235381,-2.17411 2.407102,-3.72178 3.513672,-4.64258 0.829977,-0.6906 1.509188,-1.07262 2.035156,-1.14453 0.08769,-0.0121 0.171512,-0.0165 0.25,-0.0117 z m 117.019532,0.57422 c 0.110927,0.007 0.220043,0.0213 0.326172,0.0469 0.668954,0.1279 0.937189,0.81699 0.808593,2.07031 -0.128991,1.2277 -0.798402,2.86393 -2.007812,4.91016 -0.694902,1.151 -1.425335,2.09808 -2.197266,2.83984 -0.746309,0.74173 -1.48065,1.31537 -2.201172,1.72461 -0.694908,0.38362 -1.364485,0.61658 -2.007812,0.69336 -0.617651,0.0511 -1.144544,-0.0258 -1.582031,-0.23047 l 2.779296,-5.60156 c 1.157787,-2.32755 2.30333,-4.02734 3.435547,-5.10157 0.849348,-0.80569 1.618557,-1.25351 2.308594,-1.33984 0.115017,-0.0137 0.226976,-0.0175 0.337891,-0.0117 z m -175.113282,7.98828 c 0.212463,0 0.425025,0.0346 0.63086,0.11133 0.43747,0.15359 0.837011,0.51737 1.197266,1.08008 0.360258,0.53713 0.601842,1.33784 0.730468,2.41211 -0.437476,0.35808 -0.989096,0.64303 -1.658203,0.84765 -0.643311,0.20463 -1.274891,0.20463 -1.892578,0 -0.283051,-0.10242 -0.538072,-0.26982 -0.769531,-0.5 -0.231807,-0.25579 -0.403209,-0.5503 -0.50586,-0.88281 -0.07756,-0.35807 -0.07756,-0.74115 0,-1.15039 0.07721,-0.40926 0.286454,-0.80578 0.621094,-1.18945 0.257252,-0.28135 0.592055,-0.48931 1.003906,-0.61719 0.218733,-0.0767 0.430296,-0.11133 0.642578,-0.11133 z"
         style="font-style:normal;font-variant:normal;font-weight:normal;font-stretch:normal;font-size:medium;line-height:125%;font-family:'URW Bookman L';-inkscape-font-specification:'URW Bookman L';letter-spacing:-0.68626148px;word-spacing:0px;opacity:0.95999995;fill:#0e0f24;fill-opacity:1;stroke:none;stroke-width:1px;stroke-linecap:butt;stroke-linejoin:miter;stroke-opacity:1" />
      <path
         inkscape:connector-curvature="0"
         id="path4772"
         d="m -4.5625016,279.57931 -9.9538204,23.78509 -25.830124,2.05623 19.683832,16.76314 -6.014816,25.0524 22.1149284,-13.42842 22.1149306,13.42842 -6.003616,-25.0524 19.683834,-16.76314 -25.8413285,-2.05623 z m -80.1648774,19.27818 -7.153447,17.10724 -18.589964,1.47155 14.164187,12.06318 -4.325067,18.01367 15.904291,-9.65727 15.912676,9.65727 -4.327863,-18.01367 14.155792,-12.06318 -18.578778,-1.47155 z m 160.340955,0 -7.161825,17.10724 -18.587171,1.47155 14.161392,12.06318 -4.32507,18.01367 15.912674,-9.65727 15.904297,9.65727 -4.325072,-18.01367 14.152989,-12.06318 -18.578782,-1.47155 z"
         style="font-style:normal;font-variant:normal;font-weight:normal;font-stretch:normal;font-size:medium;line-height:125%;font-family:'URW Bookman L';-inkscape-font-specification:'URW Bookman L';letter-spacing:-0.68626148px;word-spacing:0px;opacity:0.95999995;fill:#0e0f24;fill-opacity:1;stroke:none;stroke-width:1px;stroke-linecap:butt;stroke-linejoin:miter;stroke-opacity:1" />
      <path
         inkscape:connector-curvature="0"
         id="path4827"
         d="m -250.42578,360.55859 v 3.36719 h 491.72656 v -3.36719 z"
         style="color:#000000;font-style:normal;font-variant:normal;font-weight:normal;font-stretch:normal;font-size:medium;line-height:normal;font-family:sans-serif;text-indent:0;text-align:start;text-decoration:none;text-decoration-line:none;text-decoration-style:solid;text-decoration-color:#000000;letter-spacing:normal;word-spacing:normal;text-transform:none;writing-mode:lr-tb;direction:ltr;baseline-shift:baseline;text-anchor:start;white-space:normal;clip-rule:nonzero;display:inline;overflow:visible;visibility:visible;opacity:1;isolation:auto;mix-blend-mode:normal;color-interpolation:sRGB;color-interpolation-filters:linearRGB;solid-color:#000000;solid-opacity:1;fill:#0e0f24;fill-opacity:1;fill-rule:evenodd;stroke:none;stroke-width:3.36838794;stroke-linecap:butt;stroke-linejoin:miter;stroke-miterlimit:4;stroke-dasharray:none;stroke-dashoffset:0;stroke-opacity:1;color-rendering:auto;image-rendering:auto;shape-rendering:auto;text-rendering:auto;enable-background:accumulate" />
      <path
         id="path6062"
         d="m -4.5625,489.7207 c -16.358564,0 -29.750003,12.12768 -29.75,27.19727 3e-6,15.06959 13.39144,27.19726 29.75,27.19726 16.35856,0 29.749997,-12.12767 29.75,-27.19726 3e-6,-15.06959 -13.391436,-27.19727 -29.75,-27.19727 z m 0,2.39063 c 15.182307,0 27.359378,11.15566 27.359375,24.80664 -3e-6,13.65098 -12.177073,24.80664 -27.359375,24.80664 -15.182302,0 -27.359372,-11.15566 -27.359375,-24.80664 -3e-6,-13.65098 12.177068,-24.80664 27.359375,-24.80664 z m -18.056641,17.00976 c -2.937396,0 -5.207031,1.90106 -5.207031,4.36329 0,1.51188 0.842762,2.48242 2.138672,2.48242 1.123122,0 1.835938,-0.71282 1.835938,-1.83594 0,-0.92874 -0.410766,-1.46819 -1.404297,-1.94336 -0.237584,-0.10799 -0.345703,-0.23737 -0.345703,-0.41016 0,-0.69115 1.168121,-1.42578 2.248046,-1.42578 1.511895,0 2.375,0.92906 2.375,2.52735 0,1.79267 -0.691027,3.06718 -2.980468,5.50781 -2.419032,2.54863 -3.261872,3.54255 -4.341797,5.09766 v 1.01367 c 0.561561,-0.0648 0.820668,-0.0859 1.123047,-0.0859 h 8.121093 c 0.367174,0 0.670405,0.0211 1.31836,0.0859 l 0.496093,-5.83008 h -1.166015 l -0.238281,1.08008 c -0.194386,0.86394 -0.323306,1.14396 -0.496094,1.25195 -0.215985,0.15119 -0.258435,0.15027 -1.619141,0.17188 h -4.169922 c 0.755948,-0.64797 1.317815,-1.05759 2.160157,-1.61915 3.002191,-1.94386 3.672472,-2.44109 4.298828,-3.24023 0.734349,-0.97193 1.166015,-2.11573 1.166015,-3.13086 0,-2.31104 -2.267111,-4.06055 -5.3125,-4.06055 z m 12.117188,0 c -3.239775,0 -5.615235,3.30439 -5.615235,7.79688 0,4.49248 2.37546,7.79687 5.615235,7.79687 3.1749795,0 5.5937499,-3.30496 5.5937499,-7.68945 0,-2.54862 -0.5831103,-4.4271 -1.8574219,-6.02539 -1.0151295,-1.23112 -2.2892286,-1.87891 -3.736328,-1.87891 z m 13.0664061,0 c -1.3391071,1.01513 -2.9142675,1.44705 -5.4628906,1.49024 v 1.20898 h 0.90625 c 1.92226661,0.0216 1.921875,0.0218 1.921875,1.81446 v 7.66796 c 0,1.33911 7.9888e-4,1.44635 -0.15039062,1.61915 -0.19438652,0.23757 -0.64824817,0.32421 -1.79296878,0.32421 h -0.6914062 v 1.16602 h 8.6191406 v -1.16602 H 5.2226562 c -1.1015236,0 -1.5772119,-0.0866 -1.75,-0.32421 -0.1511894,-0.17279 -0.1503906,-0.25844 -0.1503906,-1.61915 v -12.18164 z m 12.1406249,0 c -2.051857,0 -3.651583,0.7998 -4.9042968,2.46289 -1.2743114,1.66308 -1.8574218,3.64852 -1.8574218,6.21875 0,2.15985 0.4536205,3.69456 1.46875,4.94727 1.0583266,1.29591 2.5062666,1.96484 4.2773436,1.96484 3.174979,0 5.486328,-2.16014 5.486328,-5.11914 0,-2.59182 -1.793174,-4.40625 -4.341797,-4.40625 -1.382304,0 -2.245206,0.38905 -3.152343,1.42578 0,-0.25918 0.06423,-1.23025 0.107421,-1.64062 0.302381,-3.06699 1.27349,-4.73047 2.742188,-4.73047 0.539963,0 0.929688,0.19371 0.929688,0.49609 0,0.12959 -0.02264,0.21577 -0.173829,0.41016 -0.280781,0.36717 -0.43164,0.84342 -0.43164,1.27539 0,0.97193 0.777268,1.66211 1.90039,1.66211 1.231115,0 2.009766,-0.75544 2.009766,-1.94336 0,-1.85747 -1.576719,-3.02344 -4.060547,-3.02344 z m -25.228516,1.12305 c 0.6479555,0 1.1647608,0.38893 1.4023442,1.08008 0.2807806,0.71276 0.4550782,3.0449 0.4550782,5.63672 0,2.20305 -0.172801,4.57815 -0.3671875,5.3125 -0.2375835,0.86394 -0.7558854,1.31836 -1.4902349,1.31836 -0.669552,0 -1.166599,-0.38893 -1.425781,-1.08008 -0.259182,-0.71275 -0.453125,-3.04513 -0.453125,-5.59375 0,-2.20305 0.172802,-4.62307 0.367188,-5.35742 0.237584,-0.86394 0.75577,-1.31641 1.511718,-1.31641 z m -92.117182,4.98828 v 3.36914 h 63.228511 c -0.03893,-0.55697 -0.0625,-1.11796 -0.0625,-1.68359 0,-0.56629 0.02348,-1.12795 0.0625,-1.68555 z m 132.927729,0 c 0.03902,0.5576 0.0625,1.11926 0.0625,1.68555 0,0.56563 -0.02357,1.12662 -0.0625,1.68359 h 63.228516 v -3.36914 z m -16.576171,1.57813 c 1.123121,0.0432 1.707031,1.07957 1.707031,3.02343 0,2.50543 -0.626765,3.86524 -1.771485,3.86524 -1.166319,0 -1.835937,-1.25192 -1.835937,-3.47656 0,-0.75595 0.06389,-1.44659 0.171875,-1.94336 0.237584,-0.92873 0.907771,-1.51194 1.728516,-1.46875 z"
         style="font-style:normal;font-variant:normal;font-weight:bold;font-stretch:normal;font-size:medium;line-height:125%;font-family:'Century Schoolbook L';-inkscape-font-specification:'Century Schoolbook L, Bold';text-align:start;letter-spacing:-0.39270002px;word-spacing:0px;writing-mode:lr-tb;text-anchor:start;fill:#0e0f24;fill-opacity:1;stroke:none;stroke-width:1px;stroke-linecap:butt;stroke-linejoin:miter;stroke-opacity:1"
         inkscape:connector-curvature="0" />
      <path
         id="path4936"
         d="m -250.42578,463.08789 v 3.36914 h 144.73437 v -3.36914 z m 346.992186,0 v 3.36914 H 241.30078 v -3.36914 z"
         style="color:#000000;font-style:normal;font-variant:normal;font-weight:normal;font-stretch:normal;font-size:medium;line-height:normal;font-family:sans-serif;text-indent:0;text-align:start;text-decoration:none;text-decoration-line:none;text-decoration-style:solid;text-decoration-color:#000000;letter-spacing:normal;word-spacing:normal;text-transform:none;writing-mode:lr-tb;direction:ltr;baseline-shift:baseline;text-anchor:start;white-space:normal;clip-rule:nonzero;display:inline;overflow:visible;visibility:visible;opacity:1;isolation:auto;mix-blend-mode:normal;color-interpolation:sRGB;color-interpolation-filters:linearRGB;solid-color:#000000;solid-opacity:1;fill:#0e0f24;fill-opacity:1;fill-rule:evenodd;stroke:none;stroke-width:3.36838794;stroke-linecap:butt;stroke-linejoin:miter;stroke-miterlimit:4;stroke-dasharray:none;stroke-dashoffset:0;stroke-opacity:1;color-rendering:auto;image-rendering:auto;shape-rendering:auto;text-rendering:auto;enable-background:accumulate"
         inkscape:connector-curvature="0" />
      <g
         id="text5004"
         style="font-style:normal;font-variant:normal;font-weight:normal;font-stretch:normal;font-size:76.25px;line-height:125%;font-family:NOVA;-inkscape-font-specification:'NOVA, Normal';text-align:start;letter-spacing:-1.14673245px;word-spacing:0px;writing-mode:lr-tb;text-anchor:start;fill:#0e0f24;fill-opacity:1;stroke:none;stroke-width:1px;stroke-linecap:butt;stroke-linejoin:miter;stroke-opacity:1"
         transform="translate(0,18.849242)">
        <path
           id="path5949"
           style="font-size:77.5px;fill:#0e0f24;fill-opacity:1"
           d="m -255.79529,267.26763 -6.64338,4.28421 z m 0,0 8.77844,13.61241 3.9482,6.12234 1.00805,1.56314 c 1.34407,2.0842 2.62301,4.2104 4.3055,5.2464 1.23508,0.77121 2.60469,1.17902 4.06681,1.1583 1.39699,0.0213 2.71423,-0.3671 3.88659,-1.12314 1.0421,-0.67203 1.91619,-1.60459 2.51514,-2.8208 0.64095,-1.15109 0.9185,-2.43669 0.87465,-3.79167 -0.0311,-2.19318 -1.54742,-4.25851 -2.93349,-6.40784 l -0.46202,-0.71644 -4.74624,-7.35982 -8.73644,-13.54729 6.70851,-4.32622 8.73644,13.54729 4.74624,7.35982 0.46202,0.71644 c 1.9741,3.06117 3.9482,6.12234 4.14063,10.42469 0.0646,2.81711 -0.49052,5.38831 -1.73042,7.7556 -1.17477,2.32529 -2.94608,4.29755 -5.2908,5.80962 -2.54012,1.63808 -5.23973,2.45685 -8.20598,2.43316 -3.03137,0.0183 -5.66344,-0.77418 -8.24075,-2.33973 -3.32298,-2.00686 -5.04081,-4.95664 -6.8469,-7.75728 -0.27089,-0.56305 -0.60691,-1.0841 -0.90092,-1.54002 l -3.9482,-6.12233 -8.77844,-13.61242 z"
           inkscape:connector-curvature="0" />
        <path
           id="path5951"
           style="font-size:77.5px;fill:#0e0f24;fill-opacity:1"
           d="m -210.30876,241.29845 7.0625,-3.55107 z m 7.0625,-3.55107 15.14428,30.11949 4.3518,8.65502 -9.40012,-3.34085 -22.16441,-7.67928 10.75766,21.39522 -7.0625,3.55108 -15.10947,-30.05025 -4.3518,-8.65503 9.40012,3.34086 22.16441,7.67928 -10.79247,-21.46447 z"
           inkscape:connector-curvature="0" />
        <path
           id="path5953"
           style="font-size:77.5px;fill:#0e0f24;fill-opacity:1"
           d="m -181.31159,228.47291 2.62559,7.45623 z m 0,0 23.24588,-8.18566 2.62559,7.45623 -8.04103,2.83151 11.86664,33.69922 -7.45623,2.62559 -11.86663,-33.69922 -7.74863,2.72856 z"
           inkscape:connector-curvature="0" />
        <path
           id="path5955"
           style="font-size:77.5px;fill:#0e0f24;fill-opacity:1"
           d="m -130.7355,211.08813 c -6.23582,1.57848 -11.03663,5.35194 -14.12282,10.53009 -3.08619,5.17815 -4.12108,11.19611 -2.5426,17.43193 1.57848,6.23582 5.35194,11.03663 10.53009,14.12282 5.17815,3.08619 11.19611,4.12108 17.43193,2.5426 6.23582,-1.57848 11.03663,-5.35194 14.12282,-10.53009 3.08619,-5.17815 4.12108,-11.19611 2.5426,-17.43193 -1.57848,-6.23582 -5.35194,-11.03663 -10.53009,-14.12282 -5.17815,-3.08619 -11.19611,-4.12108 -17.43193,-2.5426 z m 13.41085,9.3964 c 3.29518,1.96394 5.87993,5.22693 6.88787,9.20884 1.04598,4.13217 0.36208,8.06267 -1.65797,11.45201 -2.02005,3.38933 -5.1518,5.86091 -9.28397,6.90689 -3.98191,1.00795 -8.08169,0.28695 -11.37688,-1.67699 -3.38933,-2.02005 -5.93604,-5.13278 -6.98202,-9.26495 -1.00795,-3.98191 -0.26793,-8.00656 1.75212,-11.3959 2.02005,-3.38933 5.20791,-5.95506 9.18982,-6.963 4.13217,-1.04598 8.08169,-0.28695 11.47103,1.7331 z"
           inkscape:connector-curvature="0" />
        <path
           id="path5957"
           style="font-size:77.5px;fill:#0e0f24;fill-opacity:1"
           d="m -79.073562,200.85645 c -6.368914,0.90222 -11.545913,4.14035 -15.168424,8.95857 -3.622511,4.81821 -5.295351,10.6909 -4.393136,17.05981 0.902216,6.36892 4.140345,11.54591 8.958563,15.16843 4.818218,3.62251 10.690901,5.29535 17.059815,4.39313 4.91097,-0.69568 9.078271,-2.77322 12.402786,-5.8272 2.607023,1.27444 5.4775,2.19846 10.158268,1.53539 l -1.108746,-7.82686 c -1.611412,0.22827 -2.882635,0.0953 -4.109734,-0.27883 2.163923,-4.06368 2.91467,-8.70991 2.218986,-13.62088 -0.902216,-6.36891 -4.140345,-11.54591 -8.958563,-15.16842 -4.818219,-3.62251 -10.690902,-5.29535 -17.059815,-4.39314 z m 4.506572,35.68062 c 2.685687,-0.38045 4.735119,-0.2794 6.356757,0.11707 -1.579445,1.00648 -3.443442,1.6619 -5.515257,1.95539 -4.066897,0.57612 -8.066,-0.5794 -11.132139,-2.88463 -3.153742,-2.3711 -5.352781,-5.73845 -5.950635,-9.95882 -0.576113,-4.06689 0.590269,-7.98926 2.961367,-11.143 2.371099,-3.15375 5.815184,-5.36366 9.882081,-5.93977 4.220365,-0.59785 8.142734,0.56853 11.219742,2.9505 3.066139,2.30523 5.286918,5.82605 5.863032,9.89295 0.445672,3.14609 -0.149676,6.12655 -1.424116,8.73358 -3.023302,-1.45029 -6.847197,-2.47408 -13.303714,-1.63773 z"
           inkscape:connector-curvature="0" />
        <path
           id="path5959"
           style="font-size:77.5px;fill:#0e0f24;fill-opacity:1"
           d="m -42.761567,198.29622 -7.892574,0.44306 z m 0,0 0.907841,16.17204 0.408311,7.27355 0.10425,1.85707 c 0.138999,2.47611 0.20062,4.95655 1.151686,6.68847 0.692869,1.28068 1.68222,2.31185 2.963708,3.01613 1.20411,0.70862 2.541257,1.02167 3.934065,0.94348 1.23805,-0.0695 2.458726,-0.44851 3.580305,-1.21007 1.125923,-0.68418 2.002336,-1.66484 2.633584,-2.86461 1.056423,-1.92223 0.758323,-4.46702 0.61498,-7.0205 l -0.04778,-0.85116 -0.490842,-8.74374 -0.903497,-16.09466 7.969952,-0.4474 0.903497,16.09466 0.490842,8.74373 0.04778,0.85116 c 0.204155,3.63678 0.408311,7.27355 -1.549779,11.10933 -1.335529,2.48125 -3.088356,4.44258 -5.335857,5.88832 -2.170124,1.4414 -4.68451,2.28114 -7.470124,2.43752 -3.017749,0.1694 -5.769423,-0.45235 -8.336743,-1.93829 -2.644698,-1.4816 -4.541677,-3.4709 -6.009137,-6.1053 -1.897788,-3.38645 -1.934156,-6.79978 -2.120936,-10.12704 0.04263,-0.62337 0.0079,-1.24239 -0.02253,-1.78404 l -0.408311,-7.27355 -0.907841,-16.17204 7.892574,-0.44306 z"
           inkscape:connector-curvature="0" />
        <path
           id="path5961"
           style="font-size:77.5px;fill:#0e0f24;fill-opacity:1"
           d="m -8.0527517,204.80588 15.8098951,0.0576 0.028798,-7.90495 -23.7148434,-0.0864 -0.159234,43.70971 23.7148434,0.0864 0.02908,-7.98244 -15.8098951,-0.0576 0.035291,-9.68743 11.7799218,0.0429 0.028798,-7.90495 -11.7799219,-0.0429 0.037268,-10.22993 z m -0.037268,10.22993 0.037268,-10.22993 z"
           inkscape:connector-curvature="0" />
        <path
           id="path5963"
           style="font-size:77.5px;fill:#0e0f24;fill-opacity:1"
           d="m 30.202128,197.7701 7.863811,0.80592 z m 7.049991,8.74683 -2.828619,27.60043 5.011252,0.51358 c 3.777713,0.38715 7.412966,-0.87631 10.132881,-3.09055 2.719915,-2.21424 4.694488,-5.51765 5.081645,-9.29536 0.387157,-3.77771 -0.87631,-7.41297 -3.09055,-10.13288 -2.20634,-2.79701 -5.517645,-4.69449 -9.295358,-5.08165 z m 0.81382,-7.94091 -0.0079,0.0771 5.011252,0.51357 c 5.936406,0.60839 11.165299,3.55936 14.694244,7.89422 3.528946,4.33487 5.373747,9.89944 4.749555,15.99004 -0.60839,5.9364 -3.559355,11.1653 -7.89422,14.69424 -4.334865,3.52895 -10.05363,5.35795 -15.990036,4.74956 l -7.401234,-0.75852 -5.473829,-0.56098 4.448358,-43.40515 z"
           inkscape:connector-curvature="0" />
        <path
           id="path5965"
           style="font-size:77.5px;fill:#0e0f24;fill-opacity:1"
           d="m 76.926026,211.21479 15.580987,2.68123 1.340612,-7.7905 -23.37148,-4.02183 -7.412797,43.07684 23.37148,4.02184 1.353755,-7.86687 -15.580986,-2.68123 1.642907,-9.54717 11.609362,1.99778 1.340613,-7.7905 -11.609363,-1.99777 z m -1.73491,10.08182 1.73491,-10.08182 z"
           inkscape:connector-curvature="0" />
        <path
           id="path5967"
           style="font-size:77.5px;fill:#0e0f24;fill-opacity:1"
           d="m 115.69496,210.84041 7.62388,2.08938 z m 5.51401,9.788 -3.40036,12.40749 3.58771,0.98324 c 1.71911,0.47113 3.37786,0.28286 4.9015,-0.58529 1.52365,-0.86816 2.53129,-2.19917 3.00242,-3.91828 0.45065,-1.64436 0.26238,-3.30311 -0.58529,-4.9015 -0.86815,-1.52365 -2.19916,-2.53129 -3.91827,-3.00242 z m 2.10987,-7.69862 -0.0205,0.0747 3.58771,0.98324 c 3.81194,1.04469 6.86096,3.40709 8.68531,6.71959 1.80386,3.38724 2.47218,7.10614 1.42749,10.91808 -1.04469,3.81194 -3.46135,6.76573 -6.79433,8.66482 -3.33298,1.8991 -7.10614,2.47219 -10.91808,1.4275 l -3.58771,-0.98324 -3.91246,14.27608 -7.62388,-2.08938 11.53256,-42.08081 7.62388,2.08938 z"
           inkscape:connector-curvature="0" />
        <path
           id="path5969"
           style="font-size:77.5px;fill:#0e0f24;fill-opacity:1"
           d="m 159.58477,242.98462 0.90154,9.34981 -7.55336,-2.81255 z m 2.90548,28.62043 8.13438,3.02891 -4.09362,-40.30983 -0.81733,-8.24339 -5.96416,5.80094 -28.70737,28.01341 8.13438,3.02891 7.81931,-7.67381 14.38042,5.35467 z m -9.5573,-22.08317 6.65182,-6.53726 z"
           inkscape:connector-curvature="0" />
        <path
           id="path5971"
           style="font-size:77.5px;fill:#0e0f24;fill-opacity:1"
           d="m 190.56774,236.07678 7.102,3.4714 z m 3.59657,10.64303 -5.64954,11.55816 3.34212,1.6336 c 1.60143,0.78276 3.26625,0.90641 4.92482,0.3369 1.65857,-0.5695 2.89626,-1.68978 3.67903,-3.29121 0.74873,-1.53181 0.87238,-3.19662 0.3369,-4.92482 -0.5695,-1.65858 -1.68978,-2.89626 -3.29122,-3.67903 z m 3.50543,-7.17163 -0.034,0.0696 3.34212,1.6336 c 3.551,1.7357 6.10722,4.62416 7.28339,8.21825 1.14213,3.66372 1.10684,7.44203 -0.62886,10.99303 -1.7357,3.551 -4.65975,6.00357 -8.28787,7.24936 -3.62813,1.2458 -7.44203,1.10684 -10.99303,-0.62886 l -3.34212,-1.6336 -6.50037,13.29885 -7.102,-3.4714 19.16077,-39.20026 7.102,3.4714 z"
           inkscape:connector-curvature="0" />
        <path
           id="path5973"
           style="font-size:77.5px;fill:#0e0f24;fill-opacity:1"
           d="m 220.80449,260.38818 13.58324,8.09022 4.04511,-6.79163 -20.37487,-12.13532 -22.36706,37.55368 20.37487,12.13532 4.08476,-6.85821 -13.58324,-8.09021 4.95724,-8.32307 10.12084,6.02801 4.04511,-6.79163 -10.12085,-6.028 z m -5.23485,8.78916 5.23485,-8.78916 z"
           inkscape:connector-curvature="0" />
        <path
           id="path5975"
           style="font-size:77.5px;fill:#0e0f24;fill-opacity:1"
           d="m 249.90265,269.58408 -6.41737,-4.61589 z m 0,0 -20.77149,28.87816 11.82809,8.50771 -4.66114,6.48028 -11.82809,-8.50771 -0.0453,0.0629 -6.41737,-4.61589 25.47788,-35.42136 6.41737,4.61589 z"
           inkscape:connector-curvature="0" />
      </g>
      <g
         id="text5049"
         style="font-style:normal;font-variant:normal;font-weight:normal;font-stretch:normal;font-size:27.5px;line-height:125%;font-family:NOVA;-inkscape-font-specification:'NOVA, Normal';text-align:start;letter-spacing:-0.5px;word-spacing:0px;writing-mode:lr-tb;text-anchor:start;fill:#0e0f24;fill-opacity:1;stroke:none;stroke-width:1px;stroke-linecap:butt;stroke-linejoin:miter;stroke-opacity:1">
        <path
           id="path5924"
           style="font-size:77.5px;fill:#0e0f24;fill-opacity:1"
           d="m -188.76418,515.72232 6.99519,3.6819 z m 3.27719,10.74567 -5.9921,11.38433 3.29185,1.73265 c 1.57735,0.83024 3.23773,1.00353 4.91257,0.4838 1.67483,-0.51973 2.94542,-1.60256 3.77565,-3.17991 0.79413,-1.50876 0.96743,-3.16915 0.48379,-4.91256 -0.51973,-1.67484 -1.60256,-2.94542 -3.1799,-3.77565 z m 3.718,-7.06377 -0.0361,0.0686 3.29185,1.73266 c 3.4976,1.84095 5.96645,4.80443 7.03478,8.43204 1.03224,3.69619 0.88415,7.47176 -0.95679,10.96936 -1.84095,3.49759 -4.83692,5.86176 -8.50063,6.99868 -3.6637,1.13691 -7.47176,0.88415 -10.96935,-0.9568 l -3.29186,-1.73265 -6.89453,13.09883 -6.99519,-3.6819 20.32263,-38.6107 6.99519,3.6819 z"
           inkscape:connector-curvature="0" />
        <path
           id="path5926"
           style="font-size:77.5px;fill:#0e0f24;fill-opacity:1"
           d="m -156.06011,551.2016 0.67136,9.36916 -7.48191,-2.99744 z m 2.20084,28.68323 8.05744,3.22801 -3.10119,-40.39831 -0.61438,-8.26098 -6.10499,5.65253 -29.38753,27.29903 8.05745,3.22801 8.00564,-7.47921 14.2444,5.70666 z m -9.01139,-22.31151 6.81055,-6.37172 z"
           inkscape:connector-curvature="0" />
        <path
           id="path5928"
           style="font-size:77.5px;fill:#0e0f24;fill-opacity:1"
           d="m -123.77223,572.47692 c 1.68402,-0.2304 3.28516,-0.72766 4.92162,-1.61852 3.32532,-1.68545 5.84265,-4.74049 6.96106,-8.53146 1.1184,-3.79097 0.52231,-7.52212 -1.21554,-10.9437 -1.75978,-3.34725 -4.76243,-5.76833 -8.55339,-6.88673 l -3.56797,-1.05261 0.0219,-0.0743 -7.58194,-2.23681 -12.34628,41.84931 7.58193,2.2368 4.18853,-14.19754 1.11499,0.32894 4.2854,16.6975 8.84559,2.60961 -4.65593,-18.18046 z m -3.69103,-21.45109 3.56797,1.05262 c 1.70965,0.50437 3.02087,1.53763 3.85932,3.07782 0.81653,1.61453 0.9726,3.27662 0.49015,4.91194 -0.50438,1.70965 -1.53763,3.02087 -3.07782,3.85932 -1.5402,0.83845 -3.20229,0.99452 -4.91194,0.49014 l -3.56797,-1.05261 z"
           inkscape:connector-curvature="0" />
        <path
           id="path5930"
           style="font-size:77.5px;fill:#0e0f24;fill-opacity:1"
           d="m -92.257008,570.2156 2.334602,9.09843 -7.897082,-1.61236 z m 7.290452,27.82841 8.50455,1.73638 -10.269529,-39.19409 -2.080545,-8.01828 -4.996773,6.6524 -24.036897,32.11061 8.50455,1.73638 6.54044,-8.78928 15.034832,3.06968 z m -12.852932,-20.34234 5.56248,-7.48607 z"
           inkscape:connector-curvature="0" />
        <path
           id="path5932"
           style="font-size:77.5px;fill:#0e0f24;fill-opacity:1"
           d="m -55.818887,558.30559 -0.691254,7.87472 z m 0,0 24.550593,2.15508 -0.691254,7.87472 -8.492343,-0.74547 -3.124198,35.59064 -7.874718,-0.69125 3.124197,-35.59064 -8.183531,-0.71836 z"
           inkscape:connector-curvature="0" />
        <path
           id="path5934"
           style="font-size:77.5px;fill:#0e0f24;fill-opacity:1"
           d="m -23.996255,560.77971 -7.902459,-0.20044 z m 0,0 -0.410687,16.19229 -0.184711,7.28266 -0.04716,1.8594 c -0.06288,2.4792 -0.203236,4.95644 0.603795,6.75998 0.586396,1.3328 1.488587,2.44103 2.708538,3.24722 1.142476,0.80423 2.449727,1.22501 3.844279,1.26038 1.239601,0.0314 2.487063,-0.24702 3.666874,-0.91482 1.177846,-0.59033 2.131127,-1.49645 2.857878,-2.64089 1.2092868,-1.82993 1.1191819,-4.39054 1.1840272,-6.94721 l 0.021615,-0.85223 0.2220459,-8.75469 0.4087217,-16.11481 7.9799337,0.20239 -0.4087217,16.11482 -0.2220459,8.75469 -0.021615,0.85222 c -0.092355,3.64133 -0.1847108,7.28266 -2.4483335,10.94644 -1.5329419,2.3644 -3.4395041,4.17664 -5.7971614,5.43476 -2.280183,1.26009 -4.854546,1.89253 -7.643649,1.82178 -3.021528,-0.0766 -5.713506,-0.92016 -8.151444,-2.61001 -2.515412,-1.69183 -4.244284,-3.82885 -5.492585,-6.57388 -1.616027,-3.52961 -1.374616,-6.93458 -1.290121,-10.26601 0.0932,-0.61784 0.108915,-1.23764 0.122671,-1.77996 l 0.18471,-7.28266 0.410687,-16.1923 z"
           inkscape:connector-curvature="0" />
        <path
           id="path5936"
           style="letter-spacing:2.29999995px;fill:#0e0f24;fill-opacity:1"
           d="m 20.815731,568.26878 15.771532,-1.10221 -0.551105,-7.88577 -23.657298,1.65332 3.047287,43.60364 23.657298,-1.65331 -0.556508,-7.96308 -15.771532,1.10221 -0.675374,-9.66393 11.751338,-0.82125 -0.551105,-7.88577 -11.751338,0.82126 z m 0.713195,10.20511 -0.713195,-10.20511 z"
           inkscape:connector-curvature="0" />
        <path
           id="path5938"
           style="letter-spacing:2.29999995px;fill:#0e0f24;fill-opacity:1"
           d="m 37.479082,560.04831 8.583196,-1.29273 z m 8.583196,-1.29273 15.694843,23.02937 8.062218,-26.60746 8.583196,-1.29273 -11.53889,37.86834 -2.405646,7.9646 -4.721472,-6.89117 -22.257445,-32.77822 z"
           inkscape:connector-curvature="0" />
        <path
           id="path5940"
           style="letter-spacing:2.29999995px;fill:#0e0f24;fill-opacity:1"
           d="m 87.465709,559.10281 15.381371,-3.65642 -1.82821,-7.69069 -23.072058,5.48463 10.108923,42.52498 23.072065,-5.48463 -1.84614,-7.76608 -15.38137,3.65641 -2.240453,-9.42486 11.460633,-2.72439 -1.82821,-7.69069 -11.460633,2.72439 z m 2.365918,9.95265 -2.365918,-9.95265 z"
           inkscape:connector-curvature="0" />
        <path
           id="path5942"
           style="letter-spacing:2.29999995px;fill:#0e0f24;fill-opacity:1"
           d="m 124.54645,540.66152 7.5208,-2.43444 z m 7.5208,-2.43444 10.38217,32.07403 2.98338,9.21668 -8.78191,-4.73304 -20.73689,-10.9642 7.37491,22.78362 -7.5208,2.43444 -10.3583,-32.0003 -2.98338,-9.21667 8.7819,4.73304 20.7369,10.9642 -7.39878,-22.85736 z"
           inkscape:connector-curvature="0" />
        <path
           id="path5944"
           style="letter-spacing:2.29999995px;fill:#0e0f24;fill-opacity:1"
           d="m 132.92733,537.8335 3.08154,7.27964 z m 0,0 22.69535,-9.60714 3.08154,7.27964 -7.85059,3.32322 13.92733,32.90112 -7.27964,3.08154 -13.92733,-32.90112 -7.56512,3.20238 z"
           inkscape:connector-curvature="0" />
        <path
           id="path5946"
           style="font-size:77.5px;fill:#0e0f24;fill-opacity:1"
           d="m 174.19863,516.86603 c -5.57333,3.21172 -9.16976,8.14654 -10.73468,13.96795 -1.56492,5.82141 -0.92761,11.89435 2.28411,17.46768 3.21172,5.57332 8.14654,9.16976 13.96795,10.73468 5.82141,1.56492 11.89435,0.9276 17.46768,-2.28412 5.57332,-3.21171 9.16976,-8.14653 10.73468,-13.96795 1.56492,-5.82141 0.9276,-11.89435 -2.28412,-17.46767 -3.21171,-5.57333 -8.14653,-9.16976 -13.96795,-10.73468 -5.82141,-1.56492 -11.89435,-0.92761 -17.46767,2.28411 z m 15.45775,5.40379 c 3.70453,0.99586 7.07787,3.43484 9.12873,6.99371 2.12824,3.69316 2.53681,7.66174 1.5125,11.47212 -1.02431,3.81038 -3.36769,7.03918 -7.06085,9.16743 -3.55887,2.05085 -7.70045,2.46966 -11.40498,1.4738 -3.81038,-1.02431 -7.10633,-3.32899 -9.23458,-7.02215 -2.05085,-3.55887 -2.43096,-7.6333 -1.40665,-11.44368 1.02431,-3.81038 3.39614,-7.14502 6.95501,-9.19588 3.69316,-2.12824 7.70044,-2.46966 11.51082,-1.44535 z"
           inkscape:connector-curvature="0" />
      </g>
    </g>
  </g>
</svg>
